<svg xmlns="http://www.w3.org/2000/svg" viewBox="0 0 1080 1080" width="12" height="12">
	<style>
		tspan { white-space:pre }
		.shp0 { fill: #3e83e6 } 
		.shp1 { fill: #fffeff } 
	</style>
	<path id="Path 1" class="shp0" d="M611.1 385.8C610.14 386.4 609.62 387.12 609.94 387.42C610.26 387.72 614.17 389.86 618.64 392.18C623.1 394.49 625.45 395.33 623.86 394.04C622.26 392.76 619.26 390.91 617.19 389.93C615.11 388.96 613.42 387.65 613.42 387.01C613.42 386.37 615.63 385.68 618.35 385.47L623.28 385.09C615.19 384.81 612.05 385.21 611.1 385.8ZM198.72 386.88C198.24 387.52 197.93 446.39 198.02 517.72C198.15 619.5 198.5 647.75 199.64 649.03C200.43 649.93 205.26 654.32 210.36 658.79C215.47 663.25 225.63 672.43 232.95 679.19C240.26 685.94 249.36 694.34 253.16 697.85C256.96 701.36 260.95 705.01 262.02 705.97C263.1 706.93 267.28 710.58 271.31 714.09C275.35 717.6 281.55 723.03 285.1 726.17C288.65 729.3 297.3 737.18 304.31 743.68C311.33 750.18 321.51 759.42 326.93 764.21C332.35 769 338.62 774.62 340.85 776.72C343.08 778.81 347.67 782.92 351.05 785.87C355.05 789.36 357.56 790.82 358.28 790.06C358.95 789.35 359.38 736.84 359.39 653.49C359.41 519.24 359.43 518.06 361.73 516.91C363.2 516.18 384.04 515.86 418.85 516.04L473.65 516.33C492.58 523.67 499.78 527.52 504.82 531.27C509.2 534.54 514.47 539.56 516.54 542.43C518.61 545.3 521.58 550 523.14 552.87C524.7 555.74 526.67 560.96 527.51 564.47C528.48 568.54 528.84 575.05 528.5 582.45C528.06 592.07 527.4 595.32 524.59 601.51C522.73 605.62 519.12 611.75 516.57 615.13C514.02 618.51 509.06 623.43 505.55 626.06C502.04 628.69 496.56 632.16 493.37 633.77C490.18 635.39 484.18 637.74 480.03 639.01C473.34 641.04 468.06 641.36 433.06 641.85C411.37 642.15 393.23 642.74 392.76 643.16C392.29 643.58 391.9 670.28 391.89 702.49C391.89 734.71 392.28 761.42 392.75 761.86C393.23 762.29 411.11 762.85 432.48 763.1C468.44 763.51 471.94 763.73 479.45 766.08C483.92 767.47 491.23 770.42 495.69 772.63C500.24 774.88 506.56 779.34 510.08 782.77C513.52 786.14 517.77 790.99 519.51 793.54C521.25 796.09 524.1 802.36 525.85 807.46C528.39 814.89 529.02 818.82 529.01 827.18C529 836.33 528.53 838.76 525.17 846.89C523.07 852 518.71 859.51 515.48 863.59C512.25 867.67 508.04 872.08 506.13 873.39C504.22 874.7 502.39 876.06 502.07 876.41C501.75 876.76 498.36 878.55 494.53 880.39C490.7 882.22 484.18 884.82 480.03 886.17C472.57 888.58 471.16 888.61 336.21 888.89C227.4 889.11 199.69 889.47 198.77 890.65C198.01 891.62 197.81 914.07 198.19 955.34L198.77 1018.55C224.83 1019.45 289.29 1019.4 358.83 1019.02C435.72 1018.6 490.02 1017.84 497.43 1017.08C504.13 1016.39 513.52 1015.22 518.31 1014.48C523.09 1013.73 534.05 1011.4 542.66 1009.29C551.28 1007.18 562.76 1003.8 568.18 1001.79C573.6 999.77 581.17 996.74 585 995.05C588.83 993.35 592.74 991.36 593.7 990.62C594.66 989.88 597.53 988.31 600.08 987.14C602.63 985.97 608.37 982.66 612.84 979.78C617.3 976.9 623.57 972.4 626.75 969.78C629.94 967.17 634.9 962.67 637.77 959.79C640.64 956.91 644.62 952.78 646.61 950.6C648.59 948.42 653.52 941.68 657.54 935.62C661.57 929.56 667.11 919.91 669.85 914.17C672.59 908.42 674.83 902.94 674.84 901.99C674.84 901.03 675.73 898.42 676.82 896.19C677.91 893.96 679.18 890.3 679.64 888.07C680.1 885.84 681.3 880.36 682.29 875.89C683.29 871.42 684.63 862.81 685.28 856.75C685.92 850.69 686.46 840.51 686.47 834.14C686.49 827.76 685.95 816.8 685.28 809.78C684.61 802.76 682.99 791.54 681.68 784.84C680.37 778.14 677.46 767.18 675.23 760.48C672.99 753.79 669.06 744.13 666.49 739.03C663.93 733.92 660.33 727.53 658.5 724.82C656.67 722.11 655.16 719.5 655.16 719.02C655.15 718.54 652.27 714.76 648.76 710.61C645.25 706.46 642.39 702.68 642.4 702.2C642.41 701.72 643.65 700.16 645.15 698.72C646.66 697.29 651.1 691.55 655.01 685.96C658.93 680.38 662.13 675.55 662.13 675.23C662.13 674.92 664.25 670.35 666.83 665.09C669.41 659.82 673.04 651.08 674.88 645.66C676.73 640.24 679.04 632.41 680.01 628.26C680.99 624.11 682.57 616.02 683.53 610.28C684.49 604.54 685.62 592.01 686.04 582.45C686.51 571.68 686.28 559.52 685.42 550.55C684.66 542.58 683.25 532.66 682.28 528.51C681.31 524.37 679.02 516.01 677.19 509.95C675.35 503.89 671.46 494.24 668.54 488.5C665.61 482.76 662.58 477.03 661.81 475.77C661.03 474.51 658.1 470.07 655.31 465.91C652.51 461.75 644.94 453.08 638.49 446.66C632.03 440.24 623.72 432.93 620.01 430.42C616.3 427.92 611.08 424.44 608.41 422.69C605.74 420.95 598.34 416.94 591.96 413.79C585.58 410.64 577.23 406.94 573.4 405.57C569.57 404.2 560.96 401.35 554.26 399.23C547.57 397.11 540.52 395.06 538.61 394.67C536.69 394.28 530.95 393.17 525.85 392.19C520.74 391.22 510.83 389.57 503.81 388.54C492.7 386.9 472.16 386.59 345.32 386.19C249.45 385.88 199.29 386.12 198.72 386.88Z" />
	<path id="Path 2" class="shp1" d="M613.51 386.92C613.46 387.6 614.33 388.51 615.45 388.94C616.56 389.36 624 394.15 631.97 399.59C639.95 405.02 648.56 411.31 651.11 413.57C653.66 415.82 659.3 421.34 663.64 425.83C667.99 430.31 673.85 437.11 676.67 440.94C679.5 444.77 682.73 449.14 683.86 450.65C684.98 452.17 686.79 454.78 687.87 456.45C688.94 458.13 691.61 462.63 693.79 466.46C695.98 470.29 698.58 475.77 699.59 478.64C700.59 481.51 702.7 486.47 704.26 489.66C705.83 492.85 707.67 497.54 708.37 500.1C709.06 502.65 710.2 507.34 710.89 510.53C711.57 513.72 712.66 518.68 713.29 521.55C713.93 524.42 714.91 529.64 715.48 533.15C716.05 536.66 717.09 545.27 717.8 552.29C718.69 561.15 718.93 609.57 718.59 710.61C718.17 836.72 717.86 857.65 716.26 867.19C715.25 873.25 713.92 881.08 713.31 884.59C712.7 888.1 711.32 893.84 710.24 897.35C709.16 900.86 706.93 907.9 705.29 913.01C703.64 918.11 701.67 923.07 700.91 924.02C700.16 924.98 698.95 927.59 698.22 929.82C697.5 932.06 694.29 938.06 691.09 943.16C687.89 948.27 684.38 953.95 683.27 955.8C682.17 957.64 678.68 962.34 675.51 966.24C672.34 970.13 666.34 976.73 662.17 980.89C658 985.05 652.5 990.26 649.95 992.47C647.4 994.68 641.4 999.29 636.61 1002.71C631.83 1006.14 625.89 1010.06 623.41 1011.43C620.94 1012.79 617.54 1014.63 615.87 1015.51C612.95 1017.04 612.93 1017.15 615.16 1018.26C616.61 1018.98 626.81 1019.17 642.41 1018.76C656.13 1018.4 672.05 1017.63 677.79 1017.05C683.53 1016.47 689.01 1015.65 689.97 1015.24C690.92 1014.82 694.06 1014.26 696.93 1013.99C699.8 1013.72 704.68 1013.07 707.79 1012.54C710.89 1012.02 713.63 1011.2 713.87 1010.72C714.12 1010.25 715.5 1009.85 716.93 1009.83C718.37 1009.82 723.72 1008.47 728.82 1006.83C733.93 1005.19 740.97 1002.79 744.48 1001.51C747.99 1000.22 754.77 997.53 759.55 995.52C764.33 993.52 773.98 988.77 781.01 984.98C788.03 981.18 798.21 974.77 803.63 970.73C809.06 966.68 817.15 959.91 821.61 955.68C826.08 951.44 832.24 945.07 835.31 941.51C838.38 937.95 841.83 934 842.99 932.72C844.15 931.45 847.11 927.01 849.57 922.86C852.03 918.72 854.96 913.76 856.1 911.85C857.23 909.93 859.4 905.76 860.93 902.57C862.46 899.38 864.77 894.16 866.06 890.97C867.36 887.78 869.21 882.56 870.17 879.37C871.14 876.18 872.95 869.92 874.2 865.45C875.45 860.99 877.04 853.42 877.73 848.63C878.42 843.85 879.33 837.59 879.75 834.72C880.16 831.84 880.73 776.52 881.01 711.77C881.36 631.1 881.11 589.85 880.24 580.71C879.53 573.37 878.11 562.41 877.09 556.35C876.06 550.29 874.5 543.37 873.64 540.98C872.77 538.59 872.33 536.63 872.65 536.63C872.96 536.63 871.08 530.5 868.45 523C865.82 515.51 861.32 504.94 858.44 499.52C855.57 494.09 851.36 486.79 849.09 483.28C846.82 479.77 841.99 473.24 838.35 468.78C834.71 464.31 827.36 456.46 822.03 451.32C816.7 446.18 809.2 439.6 805.37 436.7C801.55 433.8 794.24 428.84 789.14 425.66C784.03 422.49 775.42 417.66 770 414.93C764.58 412.2 758.57 409.18 756.66 408.23C754.75 407.27 746.92 404.43 739.26 401.91C731.61 399.4 722.47 396.52 718.96 395.53C715.46 394.54 710.24 393.25 707.37 392.67C704.49 392.08 698.75 391.06 694.61 390.4C690.46 389.74 682.63 388.69 677.21 388.06C671.79 387.44 655.26 386.65 640.48 386.3C621.64 385.85 613.58 386.04 613.51 386.92Z" />
</svg>