<svg version="1.2" baseProfile="tiny-ps" xmlns="http://www.w3.org/2000/svg" viewBox="0 0 1306 227" width="460" height="80">
	<title>banner</title>
	<style>
		tspan { white-space:pre }
		.shp0 { fill: #3e83e6 } 
		.shp1 { fill: #fffeff } 
	</style>
	<path id="BetterDiscord " fill="#ffffff" aria-label="BetterDiscord"  d="M127.52 115.2L115.22 115.2L115.22 156.3C123.35 163.53 127.03 166.93 128.77 168.52C130.64 170.05 133.76 173.04 136.2 175.19C138.42 177.34 140.43 178.87 140.57 178.87C140.71 178.87 140.85 174.5 140.85 157.83L140.85 136.79C156.19 136.79 157.79 136.93 158.62 137.21C159.32 137.35 160.5 137.83 161.05 138.11C161.61 138.39 162.58 139.22 163.07 139.78C163.62 140.33 164.18 141.37 164.46 141.79C164.73 142.35 165.01 143.18 165.01 143.8C165.15 144.36 165.29 145.19 165.29 145.61C165.29 146.03 165.15 147.07 165.01 147.76C164.87 148.46 164.46 149.64 164.18 150.19C163.9 150.75 163.07 151.72 162.44 152.14C161.89 152.76 161.05 153.32 160.5 153.6C160.08 153.87 158.9 154.15 158.21 154.29C157.24 154.57 155.36 154.57 150.78 154.57L144.81 154.57L144.81 173.25C158.49 173.39 158.49 173.39 160.08 173.8C160.92 174.08 162.17 174.64 162.79 175.05C163.48 175.47 164.32 176.51 164.73 176.93C165.15 177.34 165.92 178.18 166.19 178.73C166.47 179.36 166.89 180.33 167.03 180.89C167.17 181.44 167.3 182.76 167.3 183.45C167.3 184.15 167.17 185.61 167.03 186.16C166.75 186.72 166.33 187.83 166.05 188.45C165.78 189.01 164.87 189.98 164.18 190.68C163.48 191.3 162.44 192 161.89 192.27C161.33 192.55 160.22 192.97 159.32 193.25C157.93 193.66 157.24 193.52 149.39 193.52C144.81 193.52 140.99 193.66 140.99 193.66C140.99 193.8 135.29 193.8 128.21 193.8L115.22 193.8L115.22 216.16C160.64 216.02 163.76 216.02 165.43 215.74C166.47 215.61 168.28 215.33 169.32 215.05C170.29 214.77 172.16 214.29 173.28 213.87C174.39 213.45 176.4 212.76 177.23 212.34C178.28 211.92 179.8 210.88 180.84 210.19C181.82 209.49 183.34 208.31 184.25 207.48C185.08 206.65 186.54 205.19 187.09 204.36C187.79 203.52 188.76 201.65 189.39 200.54C189.94 199.22 190.91 197.41 191.19 196.23C191.47 195.12 191.89 193.52 192.16 192.55C192.51 191.58 192.79 189.7 192.93 188.59C193.07 187.41 193.07 185.47 193.07 184.29C193.07 183.18 192.79 181.44 192.51 180.33C192.16 179.36 191.75 177.76 191.47 176.79C191.19 175.89 190.64 174.5 190.36 173.94C190.08 173.39 189.39 172.07 188.62 171.09C187.93 170.05 186.54 168.52 185.64 167.55C184.66 166.51 183.34 165.4 182.79 164.98C182.09 164.57 180.84 163.66 179.94 163.25C178.55 162.41 178.55 162.41 178.97 162.28C179.25 162.28 180.08 161.58 180.84 160.96C181.68 160.4 182.79 159.43 183.34 158.73C183.97 157.97 184.8 156.86 185.22 156.16C185.64 155.47 186.54 154.15 186.96 153.32C187.37 152.41 187.93 150.89 188.21 150.05C188.48 148.73 188.76 147.62 188.76 146.03C188.76 144.92 188.76 142.76 188.62 141.65C188.62 140.47 188.34 138.67 188.07 137.83C187.79 136.79 187.65 135.54 187.37 134.85C187.09 134.08 186.33 132.56 185.77 131.37C185.22 130.26 184.39 128.67 183.83 127.83C183.21 127 182.23 125.89 181.82 125.26C181.4 124.71 180.08 123.74 179.39 123.04C178.69 122.28 177.37 121.31 176.82 120.89C176.12 120.47 174.73 119.57 173.83 119.15C173 118.74 171.4 118.04 170.43 117.76C169.46 117.35 167.86 116.72 167.03 116.45C166.05 116.17 164.18 115.89 162.93 115.61C160.78 115.33 159.94 115.2 150.22 115.2ZM229.86 139.21L274.23 139.21L274.23 115.32L204.12 115.32L204.12 216L274.23 216L274.23 191.97L229.86 191.97L229.86 176.89L270.68 176.89L270.68 154.85L229.86 154.85ZM360.98 139.35L360.98 115.17L281.77 115.17L281.77 139.35L308.5 139.35L308.5 216L334.24 216L334.24 139.35ZM444.17 139.35L444.17 115.17L364.96 115.17L364.96 139.35L391.7 139.35L391.7 216L417.44 216L417.44 139.35ZM479.87 139.21L524.24 139.21L524.24 115.32L454.13 115.32L454.13 216L524.24 216L524.24 191.97L479.87 191.97L479.87 176.89L520.68 176.89L520.68 154.85L479.87 154.85ZM591.36 216L623.07 216L595.63 181.44C607.86 177.6 615.39 167.08 615.39 148.45C614.82 124.84 598.75 115.32 577.99 115.32L537.75 115.32L537.75 216L563.49 216L563.49 184L568.04 184ZM563.49 162.1L563.49 139.06L578.42 139.06C594.49 139.06 594.49 162.1 578.42 162.1ZM629.63 135.1L629.63 135.1L629.63 156.69C635.88 162.39 640.26 166.34 643.52 169.47C646.79 172.45 650.81 176.07 652.2 177.32C653.66 178.57 654.91 179.61 654.91 179.61L654.91 158.57L654.91 137.67C665.19 137.67 669.01 137.8 669.98 137.8C671.02 137.8 672.27 138.08 672.83 138.22C673.38 138.22 674.56 138.5 675.12 138.78C675.67 139.05 676.51 139.47 676.99 139.75C677.41 140.03 678.24 140.79 678.66 141.21C679.07 141.62 679.63 142.32 679.98 142.73C680.26 143.22 680.53 144.05 680.81 144.61C681.09 145.16 681.37 146.21 681.37 146.76L681.37 165.37L681.37 183.15C680.95 184.75 680.53 185.72 680.26 186.27C679.98 186.83 679.21 187.52 678.94 188.01C678.52 188.43 678.1 188.98 677.69 189.26C677.41 189.54 676.51 189.95 676.09 190.23C675.67 190.58 674.7 190.72 674.14 190.99C673.52 191.27 672.27 191.55 671.44 191.55C669.98 191.83 666.71 191.83 649.63 191.83L629.63 191.83L629.63 216.27C660.05 216.27 669.84 216.13 671.16 216.13C672.27 216.13 674.14 215.85 675.12 215.72C676.09 215.58 677.82 215.44 678.94 215.16C680.12 214.88 681.92 214.47 682.96 214.12C683.94 213.84 685.46 213.28 686.37 213.01C687.06 212.73 688.8 212.04 689.91 211.48C691.16 210.85 692.75 209.88 693.45 209.47C694.14 209.05 695.46 208.15 696.16 207.59C696.85 207.04 698.03 206.06 698.59 205.3C699.14 204.74 700.11 203.63 700.6 203.08C701.02 202.52 701.57 201.76 701.85 201.34C702.13 200.92 702.82 199.95 703.24 199.19C703.73 198.49 704.14 197.52 704.42 197.11C704.7 196.69 704.84 195.65 705.11 195.23C705.39 194.81 705.67 193.7 705.95 192.94C706.23 192.24 706.57 190.99 706.71 190.09C706.99 189.26 707.13 187.87 707.27 187.11C707.41 186 707.41 181.76 707.41 165.37C707.41 149.61 707.41 144.61 707.27 143.5C707.13 142.73 706.85 141.35 706.71 140.51C706.57 139.61 706.23 138.22 705.95 137.39C705.67 136.62 705.25 135.37 704.98 134.68C704.7 133.92 704.14 132.67 703.86 131.97C703.59 131.21 702.96 130.1 702.55 129.54C702.27 128.99 701.43 127.94 701.02 127.25C700.39 126.55 699.28 125.24 698.45 124.4C697.75 123.57 696.3 122.25 695.32 121.56C694.28 120.86 692.89 120.03 692.34 119.61C691.78 119.26 690.46 118.57 689.49 118.15C688.66 117.74 687.2 117.04 686.37 116.76C685.46 116.42 684.07 115.86 683.1 115.58C682.06 115.31 680.53 115.03 679.63 114.75C678.8 114.47 677.41 114.19 676.37 114.06C675.39 113.92 673.87 113.64 672.96 113.64C671.85 113.43 665.6 113.29 650.53 113.29L629.63 113.29ZM745.52 115.32L720.06 115.32L720.06 216L745.52 216ZM756.61 199.22C765.99 211.31 778.79 217.42 790.88 217.42C809.37 217.42 829.85 206.76 830.7 187.27C831.84 162.53 813.92 156.27 796 153C788.18 151.29 782.92 148.45 782.63 143.62C783.06 131.95 801.12 131.53 811.64 142.76L828.28 129.96C817.9 117.31 806.1 113.89 793.87 113.89C775.38 113.89 757.46 124.27 757.46 144.04C757.46 163.24 772.25 173.48 788.46 176.04C796.71 177.18 805.95 180.45 805.67 186.14C804.96 196.94 782.77 196.37 772.68 184.14ZM892.99 184.57C887.44 198.51 864.69 195.1 864.69 183.01L864.69 148.31C864.69 135.79 887.16 132.95 893.98 145.46L914.75 137.07C906.64 119.15 891.71 113.89 879.34 113.89C859.14 113.89 839.23 125.55 839.23 148.31L839.23 183.01C839.23 205.9 859.14 217.42 878.91 217.42C891.57 217.42 906.78 211.16 915.17 194.81ZM922 182.87C922 205.9 942.9 217.42 963.81 217.42C984.71 217.42 1005.48 205.9 1005.48 182.87L1005.48 148.45C1005.48 125.41 984.57 113.89 963.67 113.89C942.76 113.89 922 125.27 922 148.45ZM947.45 148.45C947.45 141.06 955.42 137.07 963.38 137.07C971.63 137.07 980.02 140.63 980.02 148.45L980.02 182.87C980.02 190.12 971.91 193.82 963.81 193.82C955.7 193.82 947.45 190.26 947.45 182.87ZM1072.6 216L1104.31 216L1076.87 181.44C1089.1 177.6 1096.63 167.08 1096.63 148.45C1096.06 124.84 1079.99 115.32 1059.23 115.32L1018.99 115.32L1018.99 216L1044.73 216L1044.73 184L1049.28 184ZM1044.73 162.1L1044.73 139.06L1059.66 139.06C1075.73 139.06 1075.73 162.1 1059.66 162.1ZM1110.87 135.1L1110.87 135.1L1110.87 156.69C1117.12 162.39 1121.5 166.34 1124.76 169.47C1128.02 172.45 1132.05 176.07 1133.44 177.32C1134.9 178.57 1136.15 179.61 1136.15 179.61L1136.15 158.57L1136.15 137.67C1146.43 137.67 1150.25 137.8 1151.22 137.8C1152.26 137.8 1153.51 138.08 1154.06 138.22C1154.62 138.22 1155.8 138.5 1156.36 138.78C1156.91 139.05 1157.74 139.47 1158.23 139.75C1158.65 140.03 1159.48 140.79 1159.9 141.21C1160.31 141.62 1160.87 142.32 1161.22 142.73C1161.49 143.22 1161.77 144.05 1162.05 144.61C1162.33 145.16 1162.61 146.21 1162.61 146.76L1162.61 165.37L1162.61 183.15C1162.19 184.75 1161.77 185.72 1161.49 186.27C1161.22 186.83 1160.45 187.52 1160.17 188.01C1159.76 188.43 1159.34 188.98 1158.93 189.26C1158.65 189.54 1157.74 189.95 1157.33 190.23C1156.91 190.58 1155.94 190.72 1155.38 190.99C1154.76 191.27 1153.51 191.55 1152.68 191.55C1151.22 191.83 1147.95 191.83 1130.87 191.83L1110.87 191.83L1110.87 216.27C1141.29 216.27 1151.08 216.13 1152.4 216.13C1153.51 216.13 1155.38 215.85 1156.36 215.72C1157.33 215.58 1159.06 215.44 1160.17 215.16C1161.36 214.88 1163.16 214.47 1164.2 214.12C1165.17 213.84 1166.7 213.28 1167.61 213.01C1168.3 212.73 1170.04 212.04 1171.15 211.48C1172.4 210.85 1173.99 209.88 1174.69 209.47C1175.38 209.05 1176.7 208.15 1177.4 207.59C1178.09 207.04 1179.27 206.06 1179.83 205.3C1180.38 204.74 1181.35 203.63 1181.84 203.08C1182.26 202.52 1182.81 201.76 1183.09 201.34C1183.37 200.92 1184.06 199.95 1184.48 199.19C1184.96 198.49 1185.38 197.52 1185.66 197.11C1185.94 196.69 1186.08 195.65 1186.35 195.23C1186.63 194.81 1186.91 193.7 1187.19 192.94C1187.46 192.24 1187.81 190.99 1187.95 190.09C1188.23 189.26 1188.37 187.87 1188.51 187.11C1188.65 186 1188.65 181.76 1188.65 165.37C1188.65 149.61 1188.65 144.61 1188.51 143.5C1188.37 142.73 1188.09 141.35 1187.95 140.51C1187.81 139.61 1187.46 138.22 1187.19 137.39C1186.91 136.62 1186.49 135.37 1186.21 134.68C1185.94 133.92 1185.38 132.67 1185.1 131.97C1184.83 131.21 1184.2 130.1 1183.78 129.54C1183.51 128.99 1182.67 127.94 1182.26 127.25C1181.63 126.55 1180.52 125.24 1179.69 124.4C1178.99 123.57 1177.53 122.25 1176.56 121.56C1175.52 120.86 1174.13 120.03 1173.58 119.61C1173.02 119.26 1171.7 118.57 1170.73 118.15C1169.9 117.74 1168.44 117.04 1167.61 116.76C1166.7 116.42 1165.31 115.86 1164.34 115.58C1163.3 115.31 1161.77 115.03 1160.87 114.75C1160.04 114.47 1158.65 114.19 1157.61 114.06C1156.63 113.92 1155.11 113.64 1154.2 113.64C1153.09 113.43 1146.84 113.29 1131.77 113.29L1110.87 113.29Z" />
	<path id="Official BetterDiscord Server " fill="#8e9297" aria-label="Official BetterDiscord Server"  d="M381.2 69.44C381.2 57.39 374.13 49.25 362.94 49.25C351.8 49.25 344.56 57.45 344.56 69.55C344.56 81.59 351.74 89.74 362.83 89.74C374.02 89.74 381.2 81.48 381.2 69.44ZM373.63 69.49C373.63 78.03 369.61 83.52 362.88 83.52C356.21 83.52 352.19 78.03 352.19 69.49C352.19 60.95 356.21 55.47 362.88 55.47C369.55 55.47 373.63 60.95 373.63 69.49ZM401.95 54.45L401.05 48.91C400.37 48.8 399.47 48.68 398.28 48.68C392.68 48.68 388.84 50.95 388.84 57L388.84 61.69L384.88 61.69L384.88 67.23L388.84 67.23L388.84 89L395.56 89L395.56 67.23L401.61 67.23L400.77 61.69L395.56 61.69L395.56 57.67C395.56 55.24 396.81 54.23 399.13 54.23C400.26 54.23 401.28 54.34 401.95 54.45ZM420.73 54.45L419.82 48.91C419.14 48.8 418.24 48.68 417.05 48.68C411.45 48.68 407.61 50.95 407.61 57L407.61 61.69L403.65 61.69L403.65 67.23L407.61 67.23L407.61 89L414.34 89L414.34 67.23L420.39 67.23L419.54 61.69L414.34 61.69L414.34 57.67C414.34 55.24 415.58 54.23 417.9 54.23C419.03 54.23 420.05 54.34 420.73 54.45ZM432.21 53.26C432.21 50.95 430.4 49.31 428.19 49.31C425.93 49.31 424.12 50.95 424.12 53.26C424.12 55.53 425.93 57.11 428.19 57.11C430.4 57.11 432.21 55.53 432.21 53.26ZM431.53 89L431.53 61.69L424.74 61.69L424.74 89ZM459.29 86.85L458.39 81.08C455.84 83.06 453.69 83.68 451.32 83.68C447.19 83.68 444.14 80.97 444.14 75.32C444.14 69.89 446.96 67 450.86 67C453.52 67 455.73 67.8 458.05 69.55L459.01 63.44C456.86 62.08 454.14 61.12 450.47 61.12C443.23 61.12 437.29 65.99 437.29 75.49C437.29 84.42 442.67 89.51 450.24 89.51C453.69 89.51 456.52 88.77 459.29 86.85ZM472.46 53.26C472.46 50.95 470.66 49.31 468.45 49.31C466.19 49.31 464.38 50.95 464.38 53.26C464.38 55.53 466.19 57.11 468.45 57.11C470.66 57.11 472.46 55.53 472.46 53.26ZM471.79 89L471.79 61.69L465 61.69L465 89ZM500.68 89L500.68 70.28C500.68 63.72 497.17 61.12 490.11 61.12C485.75 61.12 482.42 62.08 479.25 63.33L480.1 68.76C483.04 67.46 486.04 66.55 489.2 66.55C492.2 66.55 493.9 67.68 493.9 70.62L493.9 71.41C482.87 72.49 477.44 75.37 477.44 81.99C477.44 86.74 480.55 89.57 485.19 89.57C489.26 89.57 492.09 87.76 494.29 85.44L494.86 89ZM493.9 81.48C492.03 83.35 489.82 84.42 487.51 84.42C485.41 84.42 484.17 83.23 484.17 81.25C484.17 78.65 486.04 76.33 493.9 75.37ZM514.48 89L514.48 48.17L507.69 49.25L507.69 89ZM560.33 77.63C560.33 72.43 557.45 69.61 553.1 68.25C556.49 66.83 558.75 64.18 558.75 60.11C558.75 53.94 554.57 49.98 545.8 49.98L534.44 49.98L534.44 89L545.63 89C554.79 89 560.33 85.32 560.33 77.63ZM551.8 60.73C551.8 64.06 549.48 66.04 545.07 66.04L541.62 66.04L541.62 55.7L545.41 55.7C549.93 55.7 551.8 57.62 551.8 60.73ZM553.15 77.41C553.15 81.31 550.38 83.29 545.63 83.29L541.62 83.29L541.62 71.36L545.52 71.36C550.5 71.36 553.15 73.45 553.15 77.41ZM588.66 75.03C588.66 67.29 584.99 61.12 576.79 61.12C569.66 61.12 564.35 66.5 564.35 75.37C564.35 85.21 570.06 89.57 577.69 89.57C582.1 89.57 585.67 88.26 588.61 86.23L587.82 80.91C584.82 83.01 581.93 84.31 578.43 84.31C574.24 84.31 571.42 81.99 571.08 76.67L588.61 76.67C588.61 76.28 588.66 75.6 588.66 75.03ZM582.05 72.43L571.19 72.43C571.7 67.97 573.91 65.82 576.62 65.82C579.9 65.82 581.6 68.19 582.05 72.43ZM608.85 89L608 83.29C607.38 83.46 606.64 83.52 605.85 83.52C603.25 83.52 602.23 82.33 602.23 80.12L602.23 67.23L608.68 67.23L607.83 61.69L602.23 61.69L602.23 52.02L595.56 53.04L595.56 61.69L591.72 61.69L591.72 67.23L595.56 67.23L595.56 81.25C595.56 87.47 599.18 89.45 604.55 89.45C606.53 89.45 607.78 89.23 608.85 89ZM628.64 89L627.79 83.29C627.17 83.46 626.44 83.52 625.64 83.52C623.04 83.52 622.02 82.33 622.02 80.12L622.02 67.23L628.47 67.23L627.62 61.69L622.02 61.69L622.02 52.02L615.35 53.04L615.35 61.69L611.51 61.69L611.51 67.23L615.35 67.23L615.35 81.25C615.35 87.47 618.97 89.45 624.34 89.45C626.32 89.45 627.57 89.23 628.64 89ZM656.4 75.03C656.4 67.29 652.73 61.12 644.53 61.12C637.4 61.12 632.09 66.5 632.09 75.37C632.09 85.21 637.8 89.57 645.43 89.57C649.84 89.57 653.41 88.26 656.35 86.23L655.56 80.91C652.56 83.01 649.68 84.31 646.17 84.31C641.99 84.31 639.16 81.99 638.82 76.67L656.35 76.67C656.35 76.28 656.4 75.6 656.4 75.03ZM649.79 72.43L638.93 72.43C639.44 67.97 641.65 65.82 644.36 65.82C647.64 65.82 649.34 68.19 649.79 72.43ZM678.34 67.85L677.27 61.12C673.03 61.35 670.31 64.01 668.5 67.17L667.66 61.69L661.89 61.69L661.89 89L668.67 89L668.67 73.34C670.6 70.4 674.1 68.14 678.34 67.85ZM716.28 69.44C716.28 57.96 709.27 49.98 695.7 49.98L683.32 49.98L683.32 89L695.7 89C708.99 89 716.28 81.03 716.28 69.44ZM708.65 69.49C708.65 78.65 703.73 82.84 695.53 82.84L690.78 82.84L690.78 56.15L695.65 56.15C703.45 56.15 708.65 60.5 708.65 69.49ZM730.19 53.26C730.19 50.95 728.38 49.31 726.18 49.31C723.92 49.31 722.11 50.95 722.11 53.26C722.11 55.53 723.92 57.11 726.18 57.11C728.38 57.11 730.19 55.53 730.19 53.26ZM729.52 89L729.52 61.69L722.73 61.69L722.73 89ZM756.94 80.97C756.94 75.83 754.17 73.9 747.1 72.09C743.03 71.02 742.01 70.23 742.01 68.76C742.01 67.23 743.26 66.27 745.8 66.27C748.51 66.27 751.74 67.23 754.45 68.76L755.36 63.1C752.64 61.86 749.36 61.18 745.8 61.18C739.47 61.18 735.74 64.52 735.74 69.21C735.74 74.19 738.51 76.11 745.12 77.8C749.48 78.88 750.66 79.67 750.66 81.59C750.66 83.35 749.08 84.42 746.14 84.42C742.75 84.42 739.13 83.12 736.19 81.2L735.28 86.85C737.88 88.26 741.96 89.51 745.91 89.51C753.09 89.51 756.94 86.34 756.94 80.97ZM782.89 86.85L781.99 81.08C779.44 83.06 777.3 83.68 774.92 83.68C770.79 83.68 767.74 80.97 767.74 75.32C767.74 69.89 770.57 67 774.47 67C777.13 67 779.33 67.8 781.65 69.55L782.61 63.44C780.46 62.08 777.75 61.12 774.07 61.12C766.84 61.12 760.9 65.99 760.9 75.49C760.9 84.42 766.27 89.51 773.85 89.51C777.3 89.51 780.12 88.77 782.89 86.85ZM812.13 75.37C812.13 66.5 806.7 61.12 799.24 61.12C791.83 61.12 786.4 66.5 786.4 75.37C786.4 84.25 791.77 89.57 799.18 89.57C806.64 89.57 812.13 84.25 812.13 75.37ZM805.51 75.37C805.51 80.46 803.36 84.02 799.18 84.02C795.22 84.02 793.02 80.35 793.02 75.37C793.02 70.28 795.16 66.72 799.18 66.72C803.25 66.72 805.51 70.34 805.51 75.37ZM834.07 67.85L832.99 61.12C828.75 61.35 826.04 64.01 824.23 67.17L823.38 61.69L817.61 61.69L817.61 89L824.4 89L824.4 73.34C826.32 70.4 829.83 68.14 834.07 67.85ZM861.32 89L861.32 48.17L854.54 49.25L854.54 62.42C852.9 61.86 850.8 61.41 848.2 61.41C841.87 61.41 836.27 65.93 836.27 76.11C836.27 85.32 840.85 89.57 846.56 89.57C850.35 89.57 853.01 87.53 854.93 85.21L855.5 89ZM854.54 79.78C852.73 82.05 850.8 83.52 848.32 83.52C845.32 83.52 843.06 81.03 843.06 75.71C843.06 69.72 845.66 66.83 849.22 66.83C851.54 66.83 852.84 67.23 854.54 68.02ZM904.75 77.86C904.75 71.81 901.81 69.04 893.78 65.76C888.35 63.5 887.11 62.31 887.11 59.82C887.11 57.45 888.74 55.64 892.48 55.64C895.53 55.64 898.87 56.83 901.69 58.69L902.82 51.91C900 50.44 896.94 49.53 892.53 49.53C885.24 49.53 879.92 53.55 879.92 60.45C879.92 66.5 882.98 68.98 890.55 72.09C896.21 74.52 897.57 75.71 897.57 78.6C897.57 81.71 895.19 83.35 891.74 83.35C887.84 83.35 883.77 81.82 880.49 79.9L879.36 86.74C882.81 88.38 886.88 89.45 891.63 89.45C899.15 89.45 904.75 85.49 904.75 77.86ZM933.36 75.03C933.36 67.29 929.68 61.12 921.48 61.12C914.36 61.12 909.04 66.5 909.04 75.37C909.04 85.21 914.76 89.57 922.39 89.57C926.8 89.57 930.36 88.26 933.3 86.23L932.51 80.91C929.51 83.01 926.63 84.31 923.12 84.31C918.94 84.31 916.11 81.99 915.77 76.67L933.3 76.67C933.3 76.28 933.36 75.6 933.36 75.03ZM926.74 72.43L915.89 72.43C916.4 67.97 918.6 65.82 921.31 65.82C924.59 65.82 926.29 68.19 926.74 72.43ZM955.3 67.85L954.22 61.12C949.98 61.35 947.27 64.01 945.46 67.17L944.61 61.69L938.84 61.69L938.84 89L945.63 89L945.63 73.34C947.55 70.4 951.06 68.14 955.3 67.85ZM982.95 61.69L976.22 61.69L970.34 80.69L964.23 61.29L957.11 62.2L966.66 89.11L973.28 89.11ZM1009.3 75.03C1009.3 67.29 1005.62 61.12 997.42 61.12C990.3 61.12 984.98 66.5 984.98 75.37C984.98 85.21 990.69 89.57 998.33 89.57C1002.74 89.57 1006.3 88.26 1009.24 86.23L1008.45 80.91C1005.45 83.01 1002.57 84.31 999.06 84.31C994.88 84.31 992.05 81.99 991.71 76.67L1009.24 76.67C1009.24 76.28 1009.3 75.6 1009.3 75.03ZM1002.68 72.43L991.83 72.43C992.33 67.97 994.54 65.82 997.25 65.82C1000.53 65.82 1002.23 68.19 1002.68 72.43ZM1031.24 67.85L1030.16 61.12C1025.92 61.35 1023.21 64.01 1021.4 67.17L1020.55 61.69L1014.78 61.69L1014.78 89L1021.57 89L1021.57 73.34C1023.49 70.4 1027 68.14 1031.24 67.85Z" />
	<g id="Folder 1">
		<path id="Path 1" class="shp0" d="M307.26 42.06C307.18 42.11 307.14 42.17 307.16 42.19C307.19 42.22 307.5 42.39 307.86 42.58C308.22 42.76 308.41 42.83 308.29 42.73C308.16 42.62 307.91 42.48 307.75 42.4C307.58 42.32 307.44 42.21 307.44 42.16C307.44 42.11 307.62 42.05 307.84 42.04L308.24 42.01C307.59 41.98 307.33 42.02 307.26 42.06ZM274.06 42.15C274.02 42.2 273.99 46.94 274 52.69C274.01 60.88 274.04 63.15 274.13 63.26C274.2 63.33 274.58 63.68 274.99 64.04C275.41 64.4 276.22 65.14 276.81 65.68C277.4 66.23 278.13 66.9 278.44 67.19C278.75 67.47 279.07 67.76 279.15 67.84C279.24 67.92 279.58 68.21 279.9 68.49C280.23 68.78 280.73 69.21 281.01 69.47C281.3 69.72 281.99 70.35 282.56 70.88C283.12 71.4 283.94 72.14 284.38 72.53C284.82 72.92 285.32 73.37 285.5 73.54C285.68 73.71 286.05 74.04 286.32 74.27C286.64 74.55 286.85 74.67 286.9 74.61C286.96 74.55 286.99 70.33 286.99 63.62C286.99 52.81 287 52.71 287.18 52.62C287.3 52.56 288.98 52.54 291.78 52.55L296.19 52.57C297.72 53.16 298.3 53.47 298.7 53.78C299.05 54.04 299.48 54.44 299.64 54.67C299.81 54.91 300.05 55.28 300.18 55.52C300.3 55.75 300.46 56.17 300.53 56.45C300.61 56.78 300.64 57.3 300.61 57.9C300.57 58.67 300.52 58.93 300.29 59.43C300.14 59.76 299.85 60.26 299.65 60.53C299.44 60.8 299.04 61.2 298.76 61.41C298.48 61.62 298.04 61.9 297.78 62.03C297.52 62.16 297.04 62.35 296.71 62.45C296.17 62.61 295.74 62.64 292.92 62.68C291.18 62.7 289.72 62.75 289.68 62.78C289.64 62.82 289.61 64.97 289.61 67.56C289.61 70.15 289.64 72.31 289.68 72.34C289.72 72.38 291.16 72.42 292.88 72.44C295.77 72.47 296.05 72.49 296.66 72.68C297.02 72.79 297.61 73.03 297.97 73.21C298.33 73.39 298.84 73.75 299.12 74.02C299.4 74.3 299.74 74.69 299.88 74.89C300.02 75.1 300.25 75.6 300.39 76.01C300.6 76.61 300.65 76.93 300.65 77.6C300.65 78.34 300.61 78.53 300.34 79.19C300.17 79.6 299.82 80.2 299.56 80.53C299.3 80.86 298.96 81.21 298.81 81.32C298.65 81.42 298.51 81.53 298.48 81.56C298.45 81.59 298.18 81.73 297.87 81.88C297.56 82.03 297.04 82.24 296.71 82.35C296.1 82.54 295.99 82.54 285.13 82.57C276.37 82.59 274.14 82.61 274.06 82.71C274 82.79 273.98 84.59 274.02 87.92L274.06 93.01C276.16 93.08 281.35 93.07 286.95 93.04C293.14 93.01 297.51 92.95 298.11 92.89C298.65 92.83 299.4 92.74 299.79 92.68C300.17 92.62 301.05 92.43 301.75 92.26C302.44 92.09 303.37 91.82 303.8 91.66C304.24 91.49 304.85 91.25 305.16 91.11C305.46 90.98 305.78 90.82 305.86 90.76C305.93 90.7 306.17 90.57 306.37 90.48C306.58 90.38 307.04 90.12 307.4 89.88C307.76 89.65 308.26 89.29 308.52 89.08C308.77 88.87 309.17 88.51 309.4 88.28C309.64 88.04 309.96 87.71 310.12 87.54C310.28 87.36 310.67 86.82 311 86.33C311.32 85.84 311.77 85.06 311.99 84.6C312.21 84.14 312.39 83.7 312.39 83.62C312.39 83.54 312.46 83.33 312.55 83.16C312.64 82.98 312.74 82.68 312.78 82.5C312.81 82.32 312.91 81.88 312.99 81.52C313.07 81.16 313.18 80.47 313.23 79.98C313.28 79.49 313.32 78.67 313.33 78.16C313.33 77.65 313.28 76.76 313.23 76.2C313.18 75.63 313.05 74.73 312.94 74.19C312.83 73.65 312.6 72.77 312.42 72.23C312.24 71.69 311.92 70.91 311.72 70.5C311.51 70.09 311.22 69.58 311.07 69.36C310.93 69.14 310.8 68.93 310.8 68.89C310.8 68.85 310.57 68.55 310.29 68.21C310.01 67.88 309.78 67.58 309.78 67.54C309.78 67.5 309.88 67.37 310 67.26C310.12 67.14 310.48 66.68 310.79 66.23C311.11 65.78 311.37 65.39 311.37 65.37C311.37 65.34 311.54 64.97 311.74 64.55C311.95 64.13 312.24 63.42 312.39 62.99C312.54 62.55 312.73 61.92 312.81 61.58C312.88 61.25 313.01 60.6 313.09 60.14C313.17 59.67 313.26 58.67 313.29 57.9C313.33 57.03 313.31 56.05 313.24 55.33C313.18 54.69 313.07 53.89 312.99 53.55C312.91 53.22 312.73 52.55 312.58 52.06C312.43 51.57 312.12 50.79 311.88 50.33C311.65 49.87 311.4 49.41 311.34 49.31C311.28 49.21 311.04 48.85 310.82 48.51C310.59 48.18 309.98 47.48 309.46 46.96C308.94 46.45 308.27 45.86 307.98 45.66C307.68 45.46 307.26 45.18 307.04 45.03C306.83 44.89 306.23 44.57 305.72 44.32C305.2 44.06 304.53 43.77 304.22 43.66C303.91 43.55 303.22 43.32 302.68 43.15C302.14 42.98 301.58 42.81 301.42 42.78C301.27 42.75 300.81 42.66 300.39 42.58C299.98 42.5 299.19 42.37 298.62 42.29C297.73 42.15 296.07 42.13 285.86 42.1C278.14 42.07 274.1 42.09 274.06 42.15Z" />
		<path id="Path 2" class="shp1" d="M307.45 42.15C307.45 42.21 307.52 42.28 307.61 42.32C307.7 42.35 308.3 42.74 308.94 43.17C309.58 43.61 310.27 44.12 310.48 44.3C310.68 44.48 311.14 44.93 311.49 45.29C311.84 45.65 312.31 46.2 312.54 46.5C312.76 46.81 313.02 47.16 313.12 47.29C313.21 47.41 313.35 47.62 313.44 47.75C313.52 47.89 313.74 48.25 313.91 48.56C314.09 48.87 314.3 49.31 314.38 49.54C314.46 49.77 314.63 50.17 314.76 50.43C314.88 50.68 315.03 51.06 315.09 51.27C315.14 51.47 315.24 51.85 315.29 52.11C315.35 52.36 315.43 52.76 315.48 52.99C315.54 53.22 315.62 53.64 315.66 53.93C315.71 54.21 315.79 54.9 315.85 55.47C315.92 56.18 315.94 60.08 315.91 68.21C315.88 78.37 315.85 80.05 315.72 80.82C315.64 81.31 315.54 81.94 315.49 82.22C315.44 82.5 315.33 82.97 315.24 83.25C315.15 83.53 314.97 84.1 314.84 84.51C314.71 84.92 314.55 85.32 314.49 85.4C314.43 85.47 314.33 85.68 314.27 85.86C314.21 86.04 313.96 86.53 313.7 86.94C313.44 87.35 313.16 87.81 313.07 87.95C312.98 88.1 312.7 88.48 312.44 88.79C312.19 89.11 311.71 89.64 311.37 89.97C311.03 90.31 310.59 90.73 310.39 90.91C310.18 91.08 309.7 91.46 309.31 91.73C308.93 92.01 308.45 92.32 308.25 92.43C308.05 92.54 307.78 92.69 307.64 92.76C307.41 92.88 307.41 92.89 307.58 92.98C307.7 93.04 308.52 93.06 309.78 93.02C310.88 92.99 312.16 92.93 312.63 92.89C313.09 92.84 313.53 92.77 313.61 92.74C313.68 92.71 313.94 92.66 314.17 92.64C314.4 92.62 314.79 92.56 315.04 92.52C315.29 92.48 315.51 92.41 315.53 92.38C315.55 92.34 315.66 92.31 315.78 92.3C315.89 92.3 316.32 92.19 316.74 92.06C317.15 91.93 317.71 91.74 318 91.63C318.28 91.53 318.82 91.31 319.21 91.15C319.59 90.99 320.37 90.61 320.94 90.3C321.5 90 322.32 89.48 322.76 89.16C323.2 88.83 323.85 88.29 324.21 87.94C324.57 87.6 325.06 87.09 325.31 86.8C325.56 86.52 325.83 86.2 325.93 86.1C326.02 85.99 326.26 85.64 326.46 85.3C326.65 84.97 326.89 84.57 326.98 84.42C327.07 84.26 327.25 83.93 327.37 83.67C327.49 83.41 327.68 82.99 327.78 82.73C327.89 82.48 328.04 82.06 328.12 81.8C328.19 81.54 328.34 81.04 328.44 80.68C328.54 80.32 328.67 79.71 328.72 79.33C328.78 78.94 328.85 78.44 328.89 78.21C328.92 77.97 328.97 73.52 328.99 68.31C329.02 61.81 329 58.49 328.93 57.76C328.87 57.17 328.75 56.28 328.67 55.8C328.59 55.31 328.46 54.75 328.39 54.56C328.32 54.37 328.29 54.21 328.31 54.21C328.34 54.21 328.19 53.71 327.98 53.11C327.76 52.51 327.4 51.66 327.17 51.22C326.94 50.78 326.6 50.2 326.42 49.91C326.24 49.63 325.85 49.1 325.55 48.75C325.26 48.39 324.67 47.75 324.24 47.34C323.81 46.93 323.21 46.4 322.9 46.16C322.59 45.93 322 45.53 321.59 45.27C321.18 45.02 320.49 44.63 320.05 44.41C319.61 44.19 319.13 43.95 318.98 43.87C318.82 43.79 318.19 43.56 317.58 43.36C316.96 43.16 316.22 42.93 315.94 42.85C315.66 42.77 315.24 42.66 315.01 42.62C314.78 42.57 314.31 42.49 313.98 42.43C313.65 42.38 313.02 42.3 312.58 42.25C312.14 42.2 310.81 42.13 309.62 42.1C308.11 42.07 307.46 42.08 307.45 42.15Z" />
	</g>
</svg>