<svg version="1.2" baseProfile="tiny-ps" xmlns="http://www.w3.org/2000/svg" viewBox="0 0 24 24" width="24" height="24">
	<title>New Project</title>
	<style>
		tspan { white-space:pre }
		.shp0 { fill: #000000 } 
		.shp1 { fill: #000000;stroke: #000000;stroke-width: 1.576 } 
	</style>
	<g id="Background">
		<path id="Path 1" class="shp0" d="M9.95 7.24C9.95 10.68 9.93 13.6 9.9 13.73C9.87 13.89 9.42 13.99 8.63 14.02C7.96 14.05 7.41 14.12 7.41 14.17C7.41 14.22 8.39 15.61 9.58 17.24C10.78 18.88 11.81 20.29 11.88 20.37C11.94 20.45 13.01 19.14 14.24 17.45C15.48 15.77 16.51 14.32 16.54 14.23C16.56 14.14 16.04 14.05 15.37 14.02L14.15 13.98L14.05 1L9.95 1L9.95 7.24Z" />
		<path id="Path 3" class="shp1" d="M0 21.85L0 24L24 24L24 19.71L22.83 19.71L22.83 22.83L1.17 22.83L1.17 19.71L0 19.71L0 21.85Z" />
	</g>
</svg>