<svg version="1.2" baseProfile="tiny-ps" xmlns="http://www.w3.org/2000/svg" viewBox="0 0 24 24" width="24" height="24">
	<title>New Project</title>
	<style>
		tspan { white-space:pre }
		.shp0 { fill: #000000 } 
	</style>
	<g id="Background">
		<path id="Path 1" class="shp0" d="M9.12 6.72C9.12 9.87 9.1 12.55 9.08 12.67C9.05 12.81 8.64 12.91 7.91 12.94C7.3 12.96 6.8 13.02 6.8 13.07C6.8 13.12 7.69 14.39 8.79 15.89C9.88 17.39 10.82 18.68 10.89 18.75C10.95 18.83 11.93 17.63 13.06 16.08C14.19 14.54 15.13 13.21 15.16 13.13C15.18 13.05 14.7 12.96 14.09 12.94L12.97 12.89L12.88 1L9.12 1L9.12 6.72Z" />
		<path id="Path 0" class="shp0" d="M0 19.8L0 22.08L22 22.08L22 17.51L20.17 17.51L20.17 20.26L1.83 20.26L1.83 17.51L0 17.51L0 19.8Z" />
	</g>
</svg>