<svg version="1.2" baseProfile="tiny-ps" xmlns="http://www.w3.org/2000/svg" viewBox="0 0 24 24" width="24" height="24">
	<title>priv-download-chan-icon-svg</title>
	<style>
		tspan { white-space:pre }
		.shp0 { fill: #000000 } 
	</style>
	<path id="Shape 2" class="shp0" d="M12.28 2.68C12.21 2.59 12.11 2.5 12 2.4L12 7.14L15.69 7.14C15.61 7 15.54 6.88 15.47 6.78L12.28 2.68ZM11.22 8.15C11.07 7.96 11 7.73 11 7.46L11 2L4.75 2C4.54 2 4.36 2.09 4.22 2.28C4.07 2.47 4 2.7 4 2.96L4 19.04C4 19.3 4.07 19.53 4.22 19.72C4.36 19.91 4.54 20 4.75 20L15.25 20C15.46 20 15.64 19.91 15.78 19.72C15.93 19.53 16 19.3 16 19.04L16 8.43L11.75 8.43C11.54 8.43 11.36 8.33 11.22 8.15ZM12.93 16.05C12.88 16.11 12.82 16.14 12.75 16.14L7.25 16.14C7.18 16.14 7.12 16.11 7.07 16.05C7.02 15.99 7 15.92 7 15.82L7 15.18C7 15.08 7.02 15.01 7.07 14.95C7.12 14.89 7.18 14.86 7.25 14.86L12.75 14.86C12.82 14.86 12.88 14.89 12.93 14.95C12.98 15.01 13 15.08 13 15.18L13 15.82C13 15.92 12.98 15.99 12.93 16.05ZM12.93 13.48C12.88 13.54 12.82 13.57 12.75 13.57L7.25 13.57C7.18 13.57 7.12 13.54 7.07 13.48C7.02 13.42 7 13.34 7 13.25L7 12.61C7 12.51 7.02 12.44 7.07 12.38C7.12 12.32 7.18 12.29 7.25 12.29L12.75 12.29C12.82 12.29 12.88 12.32 12.93 12.38C12.98 12.44 13 12.51 13 12.61L13 13.25C13 13.34 12.98 13.42 12.93 13.48ZM12.93 10.91C12.88 10.97 12.82 11 12.75 11L7.25 11C7.18 11 7.12 10.97 7.07 10.91C7.02 10.85 7 10.77 7 10.68L7 10.04C7 9.94 7.02 9.86 7.07 9.8C7.12 9.74 7.18 9.71 7.25 9.71L12.75 9.71C12.82 9.71 12.88 9.74 12.93 9.8C12.98 9.86 13 9.94 13 10.04L13 10.68C13 10.77 12.98 10.85 12.93 10.91Z" />
</svg>