<svg version="1.2" baseProfile="tiny-ps" xmlns="http://www.w3.org/2000/svg" viewBox="0 0 24 24" width="24" height="24">
	<title>download-chan-icon-svg</title>
	<style>
		tspan { white-space:pre }
		.shp0 { fill: #000000 } 
	</style>
	<path id="Shape 1" class="shp0" d="M13.76 8.38L14.99 9.62L10 14.61L5.01 9.62L6.24 8.38L9.13 11.26L9.13 2L10.88 2L10.88 11.26L13.76 8.38ZM15.25 17.75L15.25 16L17 16L17 17.75C17 18.71 16.22 19.5 15.25 19.5L4.75 19.5C3.78 19.5 3 18.71 3 17.75L3 16L4.75 16L4.75 17.75L15.25 17.75Z" />
	<path id="Shape 1" fill-rule="evenodd" class="shp0" d="M18 3.31L18 5.83C18 6.29 17.63 6.67 17.17 6.67L13.83 6.67C13.37 6.67 13 6.29 13 5.83L13 3.33C13 2.87 13.37 2.5 13.83 2.5L13.83 1.67C13.83 0.73 14.63 0 15.5 0C16.38 0 17.19 0.73 17.19 1.67L17.19 2.5C17.64 2.5 18 2.86 18 3.31ZM16.33 1.67C16.33 1.19 15.94 0.83 15.5 0.83C15.06 0.83 14.67 1.19 14.67 1.67L14.67 2.5L16.33 2.5L16.33 1.67Z" />
</svg>