<svg version="1.2" baseProfile="tiny-ps" xmlns="http://www.w3.org/2000/svg" viewBox="0 0 24 24" width="24" height="24">
	<title>priv-download-chan-icon-svg</title>
	<style>
		tspan { white-space:pre }
		.shp0 { fill: #000000 } 
	</style>
	<path id="Shape 1" fill-rule="evenodd" class="shp0" d="M18 3.31L18 5.83C18 6.29 17.63 6.67 17.17 6.67L13.83 6.67C13.37 6.67 13 6.29 13 5.83L13 3.33C13 2.87 13.37 2.5 13.83 2.5L13.83 1.67C13.83 0.73 14.63 0 15.5 0C16.38 0 17.19 0.73 17.19 1.67L17.19 2.5C17.64 2.5 18 2.86 18 3.31ZM16.33 1.67C16.33 1.19 15.94 0.83 15.5 0.83C15.06 0.83 14.67 1.19 14.67 1.67L14.67 2.5L16.33 2.5L16.33 1.67Z" />
	<path id="Path 0" fill-rule="evenodd" class="shp0" d="M11 2L11 4.78C11 7.23 11 7.58 11.02 7.67C11.02 7.72 11.04 7.8 11.06 7.85C11.08 7.9 11.11 7.96 11.13 8C11.14 8.04 11.18 8.09 11.2 8.12C11.22 8.15 11.26 8.2 11.3 8.23C11.33 8.26 11.38 8.3 11.4 8.32C11.43 8.34 11.48 8.37 11.51 8.38C11.53 8.39 11.58 8.41 11.62 8.41C11.68 8.43 11.99 8.43 16 8.43L16 13.74C16 17.5 16 19.09 15.99 19.16C15.99 19.22 15.97 19.3 15.96 19.35C15.95 19.4 15.92 19.47 15.9 19.52C15.88 19.56 15.85 19.62 15.83 19.66C15.8 19.69 15.76 19.74 15.72 19.78C15.69 19.82 15.64 19.86 15.62 19.88C15.6 19.89 15.55 19.92 15.52 19.94C15.49 19.95 15.46 19.97 15.44 19.97C15.43 19.97 15.38 19.98 15.34 19.99C15.27 20 14.55 20.01 10 20.01C5.51 20.01 4.73 20 4.66 19.99C4.62 19.99 4.56 19.97 4.53 19.96C4.5 19.95 4.45 19.92 4.42 19.9C4.38 19.88 4.33 19.84 4.31 19.82C4.28 19.79 4.23 19.74 4.2 19.69C4.17 19.65 4.13 19.58 4.11 19.54C4.09 19.5 4.06 19.43 4.05 19.38C4.03 19.33 4.02 19.25 4.01 19.19C4 19.1 3.99 18.53 3.99 14.14C4 11.42 4 7.74 4.01 2.76L4.03 2.67C4.05 2.62 4.07 2.55 4.09 2.51C4.1 2.47 4.14 2.39 4.17 2.35C4.21 2.3 4.26 2.23 4.31 2.18C4.36 2.14 4.42 2.09 4.46 2.07C4.5 2.05 4.56 2.03 4.59 2.02C4.66 2 4.71 2 11 2ZM7.11 9.77C7.09 9.78 7.06 9.81 7.05 9.84C7.03 9.87 7.01 9.92 7.01 9.96C7 10 7 10.14 7 10.4C7 10.77 7 10.78 7.03 10.83C7.04 10.86 7.06 10.9 7.07 10.91C7.08 10.93 7.11 10.96 7.14 10.97L7.19 11L12.81 11C12.87 10.96 12.9 10.94 12.91 10.93C12.93 10.91 12.95 10.87 12.97 10.84L12.99 10.79C13 9.98 13 9.97 12.98 9.9C12.96 9.85 12.95 9.83 12.91 9.79C12.88 9.76 12.85 9.73 12.82 9.73C12.79 9.72 12.05 9.72 9.99 9.72C7.88 9.72 7.2 9.72 7.17 9.73C7.16 9.73 7.13 9.75 7.11 9.77ZM7.15 12.31C7.13 12.32 7.1 12.35 7.08 12.36C7.07 12.38 7.05 12.41 7.04 12.43C7.03 12.45 7.01 12.49 7.01 12.52C7 12.56 7 12.7 7 12.96C7 13.33 7 13.35 7.02 13.4C7.04 13.43 7.06 13.47 7.09 13.5C7.12 13.53 7.15 13.55 7.19 13.56C7.23 13.57 7.6 13.57 10 13.57C12.41 13.57 12.77 13.57 12.81 13.56C12.84 13.55 12.88 13.53 12.9 13.52C12.92 13.5 12.94 13.46 12.96 13.42L12.99 13.36C13 12.57 13 12.54 12.98 12.48C12.97 12.44 12.95 12.4 12.92 12.37C12.9 12.34 12.86 12.32 12.84 12.31C12.8 12.29 12.68 12.29 10 12.29L7.2 12.29L7.15 12.31ZM7.09 14.93C7.07 14.95 7.04 14.99 7.03 15.02L7 15.08C7 15.68 7 15.87 7.01 15.9C7.01 15.93 7.02 15.97 7.04 15.99C7.05 16.02 7.07 16.05 7.09 16.07C7.11 16.09 7.14 16.12 7.16 16.12C7.19 16.14 7.64 16.14 10 16.14L12.81 16.14C12.88 16.1 12.91 16.08 12.92 16.07C12.93 16.05 12.96 16.01 12.97 15.98L12.99 15.93C12.99 15.21 12.99 15.08 12.98 15.05C12.98 15.03 12.96 14.99 12.94 14.96C12.92 14.94 12.89 14.9 12.87 14.89L12.83 14.87C7.47 14.86 7.18 14.86 7.16 14.88C7.14 14.88 7.11 14.91 7.09 14.93Z" />
</svg>