<svg version="1.2" baseProfile="tiny-ps" xmlns="http://www.w3.org/2000/svg" viewBox="0 0 24 24" width="24" height="24">
	<title>download-chan-icon-svg</title>
	<style>
		tspan { white-space:pre }
		.shp0 { fill: #000000 } 
	</style>
	<path id="Layer 1" class="shp0" d="M16.75 7.52L15.52 6.26C15.35 6.09 15.15 6 14.9 6C14.66 6 14.46 6.09 14.29 6.26L8.37 12.34L5.71 9.61C5.54 9.44 5.34 9.35 5.1 9.35C4.85 9.35 4.65 9.44 4.48 9.61L3.25 10.87C3.08 11.04 3 11.25 3 11.5C3 11.75 3.08 11.96 3.25 12.13L6.52 15.48L7.75 16.74C7.92 16.91 8.12 17 8.37 17C8.61 17 8.81 16.91 8.98 16.74L10.21 15.48L16.75 8.78C16.92 8.61 17 8.4 17 8.15C17 7.9 16.92 7.69 16.75 7.52L16.75 7.52Z" />
</svg>